# xmcd
#
# Track frame offsets: 
#        150
#        11269
#        26828
#        39140
#        55642
#        68671
#        85700
#        101405
#        116708
#        134678
#        144695
#        155742
#        168072
#
# Disc length: 2425 seconds
#
# Revision: 2
# Processed by: cddbd v1.5.2PL0 Copyright (c) Steve Scherf et al.
# Submitted via: ExactAudioCopy v1.0b1
#
DISCID=a009770d
DTITLE=The Heartbreakers - L.A.M.F. [Special Edition] [CD3: The Demo S
DTITLE=essions)
DYEAR=2012
DGENRE=Rock
TTITLE0=I Wanna Be Loved (SBS demo 01-76)
TTITLE1=Pirate Love (SBS demo 01-76)
TTITLE2=Goin' Steady (SBS demo 01-76)
TTITLE3=Flight (SBS demo 01-76)
TTITLE4=Born To Lose (Jay Nap demo - late 1976)
TTITLE5=Can't Keep My Eyes On You (Jay Nap demo - late 1976)
TTITLE6=Its Not Enough (Jay Nap demo - late 1976)
TTITLE7=I Love You (Jay Nap demo - late 1976)
TTITLE8=Take A Chance (Jay Nap demo - late 1976)
TTITLE9=Do You Love Me (Jay Nap demo - late 1976)
TTITLE10=Let Go (Essex demo 02-22-77)
TTITLE11=Chinese Rocks (Essex demo 02-22-77)
TTITLE12=Born To Lose (Essex demo 02-22-77)
EXTD=
EXTT0=
EXTT1=
EXTT2=
EXTT3=
EXTT4=
EXTT5=
EXTT6=
EXTT7=
EXTT8=
EXTT9=
EXTT10=
EXTT11=
EXTT12=
PLAYORDER=
